<svg width="64" height="64" viewBox="0 0 64 64" fill="none" xmlns="http://www.w3.org/2000/svg">
<mask id="path-1-inside-1_63_154" fill="white">
<path d="M47.3555 5C48.1912 5 48.9898 5.34872 49.5576 5.96191L56.2012 13.1377C56.7146 13.6922 57 14.4201 57 15.1758V56C57 57.6569 55.6569 59 54 59H47V42C47 40.3431 45.6569 39 44 39H19C17.3431 39 16 40.3431 16 42V59H10C8.34315 59 7 57.6569 7 56V8C7 6.34315 8.34315 5 10 5H19V20C19 21.6569 20.3431 23 22 23H41C42.6569 23 44 21.6569 44 20V5H47.3555Z"/>
</mask>
<path d="M47.3555 5C48.1912 5 48.9898 5.34872 49.5576 5.96191L56.2012 13.1377C56.7146 13.6922 57 14.4201 57 15.1758V56C57 57.6569 55.6569 59 54 59H47V42C47 40.3431 45.6569 39 44 39H19C17.3431 39 16 40.3431 16 42V59H10C8.34315 59 7 57.6569 7 56V8C7 6.34315 8.34315 5 10 5H19V20C19 21.6569 20.3431 23 22 23H41C42.6569 23 44 21.6569 44 20V5H47.3555Z" fill="#9BC9FF"/>
<path d="M49.5576 5.96191L51.0252 4.60317L51.0251 4.6031L49.5576 5.96191ZM56.2012 13.1377L54.7336 14.4964V14.4964L56.2012 13.1377ZM47 59H45V61H47V59ZM47 42H49V42H47ZM44 39V37V37V39ZM16 59V61H18V59H16ZM7 8L5 8V8H7ZM19 5H21V3H19V5ZM19 20H17V20H19ZM22 23V25V25V23ZM41 23V25V25V23ZM44 20H46V20H44ZM44 5V3H42V5H44ZM47.3555 5V7C47.6344 7 47.9011 7.11662 48.0901 7.32073L49.5576 5.96191L51.0251 4.6031C50.0786 3.58082 48.7479 3 47.3555 3V5ZM49.5576 5.96191L48.09 7.32065L54.7336 14.4964L56.2012 13.1377L57.6688 11.779L51.0252 4.60317L49.5576 5.96191ZM56.2012 13.1377L54.7336 14.4964C54.905 14.6816 55 14.9243 55 15.1758H57H59C59 13.9159 58.5242 12.7029 57.6688 11.779L56.2012 13.1377ZM57 15.1758H55V56H57H59V15.1758H57ZM57 56H55C55 56.5523 54.5523 57 54 57V59V61C56.7614 61 59 58.7614 59 56H57ZM54 59V57H47V59V61H54V59ZM47 59H49V42H47H45V59H47ZM47 42H49C49 39.2386 46.7614 37 44 37V39V41C44.5523 41 45 41.4477 45 42H47ZM44 39V37H19V39V41H44V39ZM19 39V37C16.2386 37 14 39.2386 14 42H16H18C18 41.4477 18.4477 41 19 41V39ZM16 42H14V59H16H18V42H16ZM16 59V57H10V59V61H16V59ZM10 59V57C9.44772 57 9 56.5523 9 56H7H5C5 58.7614 7.23858 61 10 61V59ZM7 56H9V8H7H5V56H7ZM7 8L9 8C9 7.44772 9.44772 7 10 7V5V3C7.23858 3 5 5.23858 5 8L7 8ZM10 5V7H19V5V3H10V5ZM19 5H17V20H19H21V5H19ZM19 20H17C17 22.7614 19.2386 25 22 25V23V21C21.4477 21 21 20.5523 21 20H19ZM22 23V25H41V23V21H22V23ZM41 23V25C43.7614 25 46 22.7614 46 20H44H42C42 20.5523 41.5523 21 41 21V23ZM44 20H46V5H44H42V20H44ZM44 5V7H47.3555V5V3H44V5Z" fill="#1E81CE" mask="url(#path-1-inside-1_63_154)"/>
<rect x="19" y="5" width="25" height="2" fill="#1E81CE"/>
<rect x="16" y="57" width="31" height="2" fill="#1E81CE"/>
<rect x="22" y="53" width="19" height="2" rx="0.5" fill="#1E81CE"/>
<rect x="22" y="49" width="19" height="2" rx="0.5" fill="#1E81CE"/>
<rect x="35" y="9" width="6" height="10" rx="0.5" fill="#1E81CE"/>
<rect x="22" y="45" width="19" height="2" rx="0.5" fill="#1E81CE"/>
</svg>
